<?xml version="1.0" encoding="iso-8859-1"?>
<!-- Generator: Adobe Illustrator 24.1.1, SVG Export Plug-In . SVG Version: 6.00 Build 0)  -->
<svg version="1.1" id="Ebene_1" xmlns="http://www.w3.org/2000/svg" xmlns:xlink="http://www.w3.org/1999/xlink" x="0px" y="0px"
	 viewBox="0 0 185.235 31.544" style="enable-background:new 0 0 185.235 31.544;" xml:space="preserve">
<g>
	<path style="fill:#3F3E3C;" d="M16.33,11.016c0.25,0.042,0.417,0.208,0.417,0.459v1.21c0,0.292-0.125,0.417-0.417,0.417h-5.299
		c-1.294,0-2.086,0.459-2.086,1.46v0.376c0,0.792,0.375,1.46,1.752,2.002l3.755,1.502c2.629,1.002,2.837,2.42,2.837,4.006v0.292
		c0,3.171-1.919,3.797-5.716,3.797c-2.462,0-4.715-0.209-5.174-0.251c-0.333-0.041-0.417-0.208-0.417-0.417v-1.252
		c0-0.292,0.125-0.417,0.417-0.417h5.258c2.253,0,2.962-0.25,2.962-1.46v-0.334c0-0.834-0.334-1.377-1.627-1.919l-4.047-1.544
		c-2.17-0.834-2.712-2.503-2.712-4.047v-0.584c0-3.129,2.712-3.546,5.757-3.546C13.242,10.766,14.661,10.808,16.33,11.016"/>
	<path style="fill:#3F3E3C;" d="M23.464,6.635c0.292-0.083,0.501,0.042,0.501,0.375v3.922h2.962c0.292,0,0.459,0.125,0.459,0.417
		v1.336c0,0.292-0.125,0.417-0.459,0.417h-2.962v9.512c0,1.252,0.334,1.544,1.836,1.544h1.376c0.293,0,0.459,0.125,0.459,0.417
		v1.377c0,0.25-0.125,0.417-0.417,0.459c-0.584,0.125-1.335,0.167-1.585,0.167c-2.045,0-4.381-0.042-4.381-3.255V13.102h-1.586
		c-0.292,0-0.417-0.125-0.417-0.417v-1.336c0-0.292,0.125-0.417,0.417-0.417h1.586V7.511c0-0.292,0.125-0.417,0.375-0.459
		L23.464,6.635z"/>
	<path style="fill:#3F3E3C;" d="M41.487,15.23v9.929c0,0.251,0,0.584-0.542,0.793c-1.001,0.375-3.463,0.626-6.3,0.626
		c-3.755,0-5.466-0.751-5.466-4.548c0-3.421,1.794-4.422,5.007-4.422h4.589v-1.919c0-1.753-1.001-2.545-3.671-2.545h-4.298
		c-0.333,0-0.417-0.084-0.417-0.418v-1.168c0-0.334,0.125-0.417,0.417-0.459c1.669-0.292,3.088-0.334,4.298-0.334
		C39.485,10.765,41.487,12.142,41.487,15.23 M34.269,19.819c-1.543,0-2.378,0.5-2.378,2.128c0,1.877,0.918,2.294,3.255,2.294
		c0.876,0,2.545-0.041,3.629-0.333v-4.089H34.269z"/>
	<path style="fill:#3F3E3C;" d="M57.384,4.966c0.292,0,0.417,0.126,0.417,0.418v20.235c0,0.292-0.167,0.417-0.459,0.459
		c-2.503,0.417-3.755,0.5-5.883,0.5c-5.507,0-6.592-1.543-6.592-7.844c0-6.299,1.126-7.926,6.467-7.926
		c1.627,0,2.921,0.083,3.755,0.208V5.384c0-0.292,0.125-0.418,0.417-0.418H57.384z M51.459,13.144c-3.505,0-3.922,1.084-3.922,5.549
		c0,4.381,0.376,5.507,3.88,5.507c1.127,0,2.504-0.083,3.63-0.209V13.144H51.459z"/>
	<path style="fill:#3F3E3C;" d="M64.726,6.635c0.292-0.083,0.501,0.042,0.501,0.375v3.922h2.962c0.292,0,0.459,0.125,0.459,0.417
		v1.336c0,0.292-0.125,0.417-0.459,0.417h-2.962v9.512c0,1.252,0.334,1.544,1.836,1.544h1.376c0.292,0,0.459,0.125,0.459,0.417
		v1.377c0,0.25-0.125,0.417-0.417,0.459c-0.584,0.125-1.335,0.167-1.585,0.167c-2.045,0-4.381-0.042-4.381-3.255V13.102h-1.627
		c-0.293,0-0.418-0.125-0.418-0.417v-1.336c0-0.292,0.125-0.417,0.418-0.417h1.585V7.511c0-0.292,0.125-0.417,0.376-0.459
		L64.726,6.635z"/>
	<path style="fill:#3F3E3C;" d="M73.738,4.966c0.292,0,0.417,0.126,0.417,0.418v5.549c0.877-0.125,2.17-0.209,3.755-0.209
		c5.383,0,6.468,1.627,6.468,7.927c0,6.258-1.127,7.844-6.593,7.844c-2.128,0-3.421-0.084-5.883-0.501
		c-0.292-0.042-0.459-0.125-0.459-0.459V5.384c0-0.292,0.126-0.418,0.418-0.418H73.738z M74.155,13.144V23.95
		c1.127,0.125,2.546,0.208,3.672,0.208c3.505,0,3.88-1.168,3.88-5.507c0-4.464-0.417-5.549-3.922-5.549L74.155,13.144z"/>
	<path style="fill:#3F3E3C;" d="M100.149,18.234v0.834c0,0.584-0.125,0.793-1.002,0.793h-9.053c0.083,3.463,0.751,4.297,3.755,4.297
		h4.673c0.292,0,0.417,0.126,0.417,0.418v1.251c0,0.251-0.125,0.418-0.417,0.459c-1.461,0.209-3.004,0.251-4.757,0.251
		c-5.34,0-6.467-1.544-6.467-7.886c0-6.341,1.127-7.927,6.467-7.927C98.897,10.766,100.065,12.268,100.149,18.234 M90.052,17.65
		h7.343c-0.042-3.588-0.668-4.506-3.588-4.506C90.761,13.144,90.135,14.062,90.052,17.65"/>
	<path style="fill:#3F3E3C;" d="M105.53,4.966c0.292,0,0.417,0.167,0.417,0.459v10.973l4.673-5.215
		c0.125-0.167,0.334-0.292,0.584-0.292h2.337c0.5,0,0.542,0.25,0.25,0.542l-5.007,5.549l6.676,8.636
		c0.25,0.334,0.292,0.751-0.501,0.751h-2.002c-0.292,0-0.501-0.125-0.626-0.292l-6.425-8.469v8.344c0,0.292-0.126,0.459-0.418,0.459
		h-1.877c-0.292,0-0.417-0.125-0.417-0.459V5.425c0-0.292,0.125-0.459,0.417-0.459H105.53z"/>
	<path style="fill:#3F3E3C;" d="M128.519,15.23v9.929c0,0.251,0,0.584-0.542,0.793c-1.001,0.375-3.463,0.626-6.3,0.626
		c-3.755,0-5.466-0.751-5.466-4.548c0-3.421,1.794-4.38,5.007-4.38l4.548-0.042v-1.919c0-1.753-1.002-2.545-3.672-2.545h-4.256
		c-0.334,0-0.417-0.084-0.417-0.418v-1.168c0-0.334,0.125-0.417,0.417-0.459c1.669-0.292,3.088-0.334,4.298-0.334
		C126.558,10.765,128.519,12.142,128.519,15.23 M121.301,19.819c-1.544,0-2.378,0.5-2.378,2.128c0,1.877,0.918,2.294,3.254,2.294
		c0.877,0,2.546-0.041,3.63-0.333v-4.089H121.301z"/>
	<path style="fill:#3F3E3C;" d="M145.207,17.399v8.595c0,0.292-0.208,0.417-0.5,0.417h-1.836c-0.292,0-0.417-0.125-0.417-0.417
		v-8.387c0-4.338-0.835-4.463-3.588-4.463h-3.881v12.85c0,0.292-0.125,0.417-0.417,0.417h-1.877c-0.292,0-0.418-0.125-0.418-0.417
		V11.683c0-0.375,0.126-0.417,0.418-0.459c2.211-0.417,4.547-0.459,5.883-0.459C143.705,10.765,145.207,11.391,145.207,17.399"/>
	<path style="fill:#3F3E3C;" d="M161.896,17.399v8.595c0,0.292-0.209,0.417-0.501,0.417h-1.836c-0.292,0-0.417-0.125-0.417-0.417
		v-8.387c0-4.338-0.835-4.463-3.588-4.463h-3.881v12.85c0,0.292-0.125,0.417-0.417,0.417h-1.877c-0.292,0-0.417-0.125-0.417-0.417
		V11.683c0-0.375,0.125-0.417,0.417-0.459c2.211-0.417,4.548-0.459,5.883-0.459C160.394,10.765,161.896,11.391,161.896,17.399"/>
	<path style="fill:#3F3E3C;" d="M168.696,6.635c0.292-0.083,0.501,0.042,0.501,0.375v3.922h2.962c0.292,0,0.459,0.125,0.459,0.417
		v1.336c0,0.292-0.125,0.417-0.459,0.417h-2.962v9.512c0,1.252,0.334,1.544,1.836,1.544h1.377c0.292,0,0.459,0.125,0.459,0.417
		v1.377c0,0.25-0.125,0.417-0.418,0.459c-0.584,0.125-1.335,0.167-1.585,0.167c-2.044,0-4.381-0.042-4.381-3.255V13.102H164.9
		c-0.292,0-0.418-0.125-0.418-0.417v-1.336c0-0.292,0.126-0.417,0.418-0.417h1.585V7.511c0-0.292,0.125-0.417,0.376-0.459
		L168.696,6.635z"/>
	<path style="fill:#F1B91D;" d="M176.516,21.935h3.692c0.263,0,0.475,0.213,0.475,0.475v3.692c0,0.263-0.213,0.475-0.475,0.475
		h-3.692c-0.263,0-0.475-0.213-0.475-0.475v-3.692C176.04,22.148,176.253,21.935,176.516,21.935z"/>
</g>
</svg>
